<?xml version="1.0" encoding="UTF-8" standalone="no"?>
<svg width="125px" height="155px" viewBox="0 0 125 155" version="1.1" xmlns="http://www.w3.org/2000/svg" xmlns:xlink="http://www.w3.org/1999/xlink" xmlns:sketch="http://www.bohemiancoding.com/sketch/ns">
    <!-- Generator: Sketch 3.3.2 (12043) - http://www.bohemiancoding.com/sketch -->
    <title>Group</title>
    <desc>Created with Sketch.</desc>
    <defs></defs>
    <g id="Page-1" stroke="none" stroke-width="1" fill="none" fill-rule="evenodd" sketch:type="MSPage">
        <g id="Group" sketch:type="MSLayerGroup" fill="#1A1918">
            <path d="M118.36019,143.614133 L118.36019,142.763176 L118.924854,142.763176 C119.211765,142.763176 119.520042,142.827456 119.520042,143.164166 C119.520042,143.589645 119.208713,143.614133 118.854653,143.614133 L118.36019,143.614133 L118.36019,143.614133 Z M118.36019,143.969208 L118.836339,143.969208 L119.556668,145.159936 L120.023661,145.159936 L119.24534,143.947781 C119.648236,143.898805 119.956512,143.684536 119.956512,143.191715 C119.956512,142.649919 119.636027,142.411161 118.988952,142.411161 L117.945085,142.411161 L117.945085,145.159936 L118.36019,145.159936 L118.36019,143.969208 L118.36019,143.969208 Z M118.860757,146.167004 C120.15796,146.167004 121.262871,145.159936 121.262871,143.779426 C121.262871,142.411161 120.15796,141.404093 118.860757,141.404093 C117.554398,141.404093 116.449487,142.411161 116.449487,143.779426 C116.449487,145.159936 117.554398,146.167004 118.860757,146.167004 L118.860757,146.167004 L118.860757,146.167004 Z M116.925636,143.779426 C116.925636,142.649919 117.777212,141.798961 118.860757,141.798961 C119.935146,141.798961 120.786722,142.649919 120.786722,143.779426 C120.786722,144.9273 119.935146,145.772136 118.860757,145.772136 C117.777212,145.772136 116.925636,144.9273 116.925636,143.779426 L116.925636,143.779426 L116.925636,143.779426 Z" id="Fill-79" sketch:type="MSShapeGroup"></path>
            <path d="M116.6723,41.5237616 C108.049718,41.7717024 102.635041,38.089323 102.635041,38.089323 C96.6801181,35.095668 85.8355039,14.7675871 69.4083399,10.1118107 C65.2695004,8.93944882 61.1184519,8.43438432 56.6408136,9.1629016 C54.6812745,5.95497678 49.8892553,2.16240153 43.1956896,3.84288886 C50.1548003,1.03901564 56.5645075,0.598232072 60.9536309,0.598232072 C87.1113409,0.598232072 110.445727,15.814448 116.6723,41.5237616" id="Fill-80" sketch:type="MSShapeGroup"></path>
            <path d="M22.843343,76.8905206 C24.1527546,72.3051472 22.9623804,65.7423697 22.9623804,65.7423697 C22.7243056,62.1089663 15.2310526,35.086485 32.1465752,20.6018473 C32.1465752,20.6018473 29.7688791,11.832091 36.6974674,6.72022602 C17.1264946,14.3788404 3.51654959,31.7040833 3.51654959,51.8485044 L3.52265408,97.5308232 L14.0620441,97.5277622 C13.5767377,94.69634 14.8830971,90.9772287 17.7705176,86.7959068 C17.7705176,86.7959068 21.5369836,81.4636501 22.843343,76.8905206" id="Fill-81" sketch:type="MSShapeGroup"></path>
            <path d="M117.062987,64.8791685 C105.403424,76.8813376 88.2589837,87.8213408 80.7748874,91.665953 C77.408265,93.3954163 74.0385904,94.9014268 70.6658635,96.2390825 L117.05383,96.2298995 L117.062987,64.8791685" id="Fill-82" sketch:type="MSShapeGroup"></path>
            <path d="M43.8017706,70.3675361 C36.5130178,77.6129159 32.4993202,84.9929796 34.5595832,89.2967414 C38.1184969,96.734964 58.7058661,93.8974198 79.3481756,83.9430577 C99.9904851,73.9886955 116.054432,59.0387863 112.287966,51.7015765 C108.295634,43.9327662 87.8608773,46.8743843 67.5451576,57.1654561 L66.855351,57.3858479 C75.8899859,51.6740276 91.6365,43.8623633 107.75844,41.5145786 C107.75844,41.5145786 121.612564,39.3443318 124.374843,45.8550723 C128.113839,54.6707436 109.287613,72.2469882 80.2821615,86.2296224 C51.2797624,100.215318 26.5138746,103.821172 22.3811395,95.1799776 C19.1640769,88.4549672 30.3688556,72.452075 47.168393,61.4171809 C47.168393,61.4171809 70.1761898,44.5602706 99.5173877,40.3911927 L99.3037308,40.5687306 C99.3037308,40.5687306 67.0812169,47.226399 43.8017706,70.3675361" id="Fill-83" sketch:type="MSShapeGroup"></path>
            <path d="M76.7472458,81.9351819 C95.8451211,72.700154 109.198678,60.7928758 106.576802,55.3381792 C103.954927,49.8834826 86.3465455,52.9444795 67.2486701,62.1795074 C48.1538471,71.4145353 34.8002903,83.3218135 37.4191136,88.7795711 C40.0440413,94.2312067 57.6493705,91.1702097 76.7472458,81.9351819 Z M69.2282577,64.8791685 C61.9211915,66.9392195 55.7404023,70.2144862 51.2444505,73.1040674 C51.2444505,73.1040674 51.818272,81.2799903 61.1123474,79.7647968 C61.1123474,79.7647968 61.0604593,79.8229557 60.9108995,79.9086637 C60.7582874,79.9913106 50.8140845,83.0859785 45.5184454,77.2027423 C44.8286388,77.7322948 43.2567344,79.1250484 43.2567344,79.1250484 L43.1956896,79.1709634 C45.8145128,81.8952507 49.3856354,84.3899632 55.2337302,83.9338747 C63.6121333,83.2818823 70.5315648,77.4506831 70.1500346,69.5992258 C70.0554152,67.6463098 69.9424822,66.6698517 69.2282577,64.8791685 Z" id="Fill-84" sketch:type="MSShapeGroup"></path>
            <path d="M34.8761327,58.34394 C34.8761327,58.34394 35.3828048,61.0039463 35.6849767,63.8078196 C30.2031509,68.7207197 27.4988649,74.7967987 27.4988649,74.7967987 C29.2386426,70.3491701 27.3279394,61.9926484 27.3279394,61.9926484 C26.0948338,54.1595571 19.5477757,32.2336358 34.8456103,18.1928427 C33.7345944,14.2686446 34.2809456,11.9422869 35.1691479,9.41390336 C36.1458652,7.11203363 38.4289419,4.57752814 40.6265558,3.65922905 C40.6265558,3.65922905 34.1374903,6.93143481 37.8307025,15.7440451 C42.0519526,12.6952921 46.6608373,10.6168752 52.4143126,8.9608758 L52.0755138,9.21799955 C30.0993747,17.6204362 28.1856193,29.9348271 33.8994154,53.1126961 C34.4060875,55.1727471 34.6624758,56.9848573 34.8761327,58.34394" id="Fill-86" sketch:type="MSShapeGroup"></path>
            <path d="M28.2793852,112.37972 L21.1432445,112.37972 L21.1432445,127.002102 L9.69123423,127.002102 L9.69123423,112.370537 L2.94272818,112.370537 L0.464308054,107.733126 L30.7669621,107.733126 L28.2793852,112.37972" id="Fill-87" sketch:type="MSShapeGroup"></path>
            <path d="M36.453288,118.195614 L42.2952784,118.195614 L39.4811117,111.874655 L39.4200668,111.874655 L36.453288,118.195614 L36.453288,118.195614 Z M32.1221573,107.733126 L46.8431182,107.733126 L57.1322245,127.002102 L45.8755577,127.002102 L44.0411605,122.833024 L34.6738312,122.833024 L32.8363818,127.002102 L21.8299988,127.002102 L32.1221573,107.733126 L32.1221573,107.733126 Z" id="Fill-88" sketch:type="MSShapeGroup"></path>
            <path d="M85.6004813,126.888845 C83.4944347,127.308202 79.2304532,127.773473 76.3247193,127.773473 C66.2187475,127.773473 58.4568973,125.848106 58.4568973,117.531377 C58.4568973,110.074789 66.7498376,107.733126 76.3247193,107.733126 C80.466611,107.733126 84.3185399,108.097385 86.253661,108.449399 L83.9736366,112.930699 C82.7435832,112.691941 80.2834766,112.545013 78.3605644,112.545013 C73.4495077,112.545013 70.1683481,113.876547 70.1683481,117.525255 C70.1683481,121.682089 73.5868586,122.66773 78.3330942,122.66773 C80.4269319,122.66773 83.4150764,122.288167 85.6004813,121.749431 L85.6004813,126.888845" id="Fill-89" sketch:type="MSShapeGroup"></path>
            <path d="M102.467168,123.154429 C106.834926,123.154429 107.127941,119.667953 107.16762,117.638512 C107.124889,115.847829 106.828821,112.119535 102.467168,112.119535 C98.2367613,112.119535 97.891858,115.847829 97.891858,117.638512 C97.891858,119.710807 98.3649554,123.154429 102.467168,123.154429 L102.467168,123.154429 L102.467168,123.154429 Z M102.467168,127.663277 C92.0376587,127.663277 85.9270712,124.268632 85.9270712,117.699732 C85.9270712,111.237968 92.0376587,107.733126 102.467168,107.733126 C112.896677,107.733126 119.138511,111.237968 119.138511,117.699732 C119.138511,124.268632 112.896677,127.663277 102.467168,127.663277 L102.467168,127.663277 L102.467168,127.663277 Z" id="Fill-90" sketch:type="MSShapeGroup"></path>
            <path d="M40.1434481,135.282099 L66.8017257,135.282099 L64.3782459,139.815435 L51.452003,139.815435 L51.452003,142.600943 L63.7891633,142.600943 L63.7891633,146.968985 L51.452003,146.968985 L51.452003,149.913664 L66.2675834,149.913664 L66.2675834,154.551075 L40.1434481,154.551075 L40.1434481,135.282099" id="Fill-91" sketch:type="MSShapeGroup"></path>
            <path d="M20.8807517,150.60714 L23.9055231,150.60714 C25.7521292,150.60714 26.5060329,150.51531 27.1408991,150.267369 C27.885646,149.985758 28.3282211,149.333765 28.3038031,148.387917 C28.2854897,147.662461 27.9924745,146.961493 27.076802,146.655393 C26.3930999,146.422757 25.3003975,146.416635 23.9940381,146.416635 L20.8807517,146.416635 L20.8807517,150.60714 L20.8807517,150.60714 Z M20.8807517,142.602633 L23.7773289,142.602633 C25.3767035,142.602633 26.203861,142.581206 26.9150332,142.339387 C27.6903026,142.076141 28.0199447,141.497613 27.998579,140.677266 C27.9802655,140.043639 27.6811459,139.410013 26.8906153,139.165133 C26.2343834,138.963108 25.2546138,138.963108 23.8597395,138.963108 L20.8807517,138.963108 L20.8807517,142.602633 L20.8807517,142.602633 Z M33.9901291,144.524939 C35.8428397,144.827978 38.6570064,145.556495 38.6417452,149.150105 C38.6356407,151.402999 37.7565952,152.93962 35.3270109,153.808943 C33.5567108,154.442569 31.0477683,154.56807 27.4522277,154.56807 L9.62103267,154.56807 L9.62103267,135.289911 L26.6525405,135.289911 C30.7425441,135.289911 34.3319802,135.081763 36.5997956,136.814288 C37.5978786,137.576476 38.1289687,138.595788 38.1289687,140.043639 C38.1289687,143.496444 35.5223544,144.384133 33.9901291,144.524939 L33.9901291,144.524939 L33.9901291,144.524939 Z" id="Fill-92" sketch:type="MSShapeGroup"></path>
            <path d="M71.4747075,154.557197 C68.3247942,154.557197 67.6136219,152.613464 67.6136219,150.669731 L67.6136219,135.282099 L79.1846696,135.282099 L79.1846696,149.730005 L93.6553467,149.730005 L91.0762026,154.557197 L71.4747075,154.557197" id="Fill-93" sketch:type="MSShapeGroup"></path>
            <path d="M98.9448813,154.557197 C95.7949681,154.557197 95.0837958,152.613464 95.0837958,150.669731 L95.0837958,135.282099 L106.654843,135.282099 L106.654843,149.730005 L121.122468,149.730005 L118.543324,154.557197 L98.9448813,154.557197" id="Fill-94" sketch:type="MSShapeGroup"></path>
        </g>
    </g>
</svg>